<?xml version="1.0" encoding="utf-8"?><!-- Uploaded to: SVG Repo, www.svgrepo.com, Generator: SVG Repo Mixer Tools -->
<svg width="50px" height="50px" viewBox="0 0 36 36" xmlns="http://www.w3.org/2000/svg" xmlns:xlink="http://www.w3.org/1999/xlink" aria-hidden="true" role="img" class="iconify iconify--twemoji" preserveAspectRatio="xMidYMid meet"><path fill="#ED2939" d="M36 27a4 4 0 0 1-4 4h-8V5h8a4 4 0 0 1 4 4v18z"></path><path fill="#002495" d="M4 5a4 4 0 0 0-4 4v18a4 4 0 0 0 4 4h8V5H4z"></path><path fill="#EEE" d="M12 5h12v26H12z"></path><path fill="#EEE" d="M36 21H21v10h2v-5.836L31.335 31H32a3.99 3.99 0 0 0 2.852-1.199L25.14 23h3.487l7.215 5.052c.093-.337.158-.686.158-1.052v-.058L30.369 23H36v-2zM0 21v2h5.63L0 26.941V27c0 1.091.439 2.078 1.148 2.8l9.711-6.8H13v.943l-9.914 6.941c.294.07.598.116.914.116h.664L13 25.163V31h2V21H0zM36 9a3.983 3.983 0 0 0-1.148-2.8L25.141 13H23v-.943l9.915-6.942A4.001 4.001 0 0 0 32 5h-.663L23 10.837V5h-2v10h15v-2h-5.629L36 9.059V9zM13 5v5.837L4.664 5H4a3.985 3.985 0 0 0-2.852 1.2l9.711 6.8H7.372L.157 7.949A3.968 3.968 0 0 0 0 9v.059L5.628 13H0v2h15V5h-2z"></path><path fill="#CF1B2B" d="M21 15V5h-6v10H0v6h15v10h6V21h15v-6z"></path></svg>